<?xml version="1.0" standalone="no"?><!DOCTYPE svg PUBLIC "-//W3C//DTD SVG 1.1//EN" "http://www.w3.org/Graphics/SVG/1.1/DTD/svg11.dtd"><svg t="1593779081307" class="icon" viewBox="0 0 1024 1024" version="1.1" xmlns="http://www.w3.org/2000/svg" p-id="1662" xmlns:xlink="http://www.w3.org/1999/xlink" width="64" height="64"><defs><style type="text/css"></style></defs><path d="M183.805889 295.573445a89.590593 89.590593 0 0 1 50.097597 17.003929 114.456553 114.456553 0 0 0 27.791367 18.283794 139.139676 139.139676 0 0 0 56.13125 12.798656 121.952909 121.952909 0 0 0-29.985423 42.052728 255.973123 255.973123 0 0 0-16.272578 121.221557 9.324735 9.324735 0 0 0 9.141898 7.862032h18.283794a9.141897 9.141897 0 0 0 9.141897-9.507573c-0.182838-26.511502 2.742569-98.73249 57.593953-102.937763 46.440838-5.119462 66.370174 3.839597 103.120601 4.936624a38.578806 38.578806 0 0 0 18.283794 16.089739 241.346087 241.346087 0 0 0-4.753786 83.191265 8.959059 8.959059 0 0 0 8.959059 7.862032h19.197984a9.141897 9.141897 0 0 0 9.141898-9.507573 182.837945 182.837945 0 0 1 7.496355-60.51936 142.613597 142.613597 0 0 0 78.254641 8.044869 28.888395 28.888395 0 0 0 16.272577 3.291083c14.627036 42.966917 65.273146 74.597882 125.609668 74.597882a143.527787 143.527787 0 0 0 106.594522-42.966917c60.702198-7.313518 107.325874-47.720704 107.325874-96.538435a49.366245 49.366245 0 0 0 0-8.959059 79.534506 79.534506 0 0 0 54.851383-70.209771 79.351668 79.351668 0 0 0-54.851383-69.844095 53.571518 53.571518 0 0 0 13.895683-35.287723c0-27.974206-23.220419-51.377463-54.851383-60.336522a69.112743 69.112743 0 0 0 4.022435-22.854743c0-49.000569-51.5603-88.676403-115.370744-88.676404a157.057795 157.057795 0 0 0-27.974205 2.011218 87.762214 87.762214 0 0 0-75.694909-36.567589 86.29951 86.29951 0 0 0-76.974775 39.675834 101.475059 101.475059 0 0 0-53.023004-14.26136C528.455415 25.5218 490.60796 54.958709 490.60796 91.526298v4.936625a121.404395 121.404395 0 0 0-66.735849-18.283795A105.86317 105.86317 0 0 0 327.88219 128.093887a83.191265 83.191265 0 0 0-18.283795-2.011217c-37.847455 0-68.564229 23.403257-68.564229 52.47449a35.287723 35.287723 0 0 0 1.279865 8.959059 232.20419 232.20419 0 0 0-80.814371 48.08638A266.9434 266.9434 0 0 0 109.756521 318.611026a9.141897 9.141897 0 0 0 8.593384 12.43298h15.541225a9.324735 9.324735 0 0 0 7.313518-3.656759 81.362885 81.362885 0 0 1 42.601241-31.813802z" p-id="1663" fill="#ffffff"></path><path d="M658.270356 789.235896h-51.194625l-30.533936-244.820008a18.283794 18.283794 0 0 0-18.283795-16.089739h-106.411684a18.283794 18.283794 0 0 0-18.283794 16.089739l-29.985423 244.820008h-3.656759l-30.168261-244.820008a18.283794 18.283794 0 0 0-18.283795-16.089739H245.0566a18.283794 18.283794 0 0 0-18.283794 16.089739l-29.985423 244.820008h-3.108245l-17.186767-415.773487a18.283794 18.283794 0 0 0-18.283794-18.283794H102.443003a18.283794 18.283794 0 0 0-18.283794 18.283794l-17.186767 415.773487H44.849051a18.283794 18.283794 0 0 0-18.283795 16.638253L9.195652 1004.070481a18.283794 18.283794 0 0 0 18.283794 19.929336h739.213811a18.283794 18.283794 0 0 0 15.906901-27.060016l-108.788577-198.196332a18.283794 18.283794 0 0 0-15.541225-9.507573z" p-id="1664" fill="#ffffff"></path></svg>