<?xml version="1.0" standalone="no"?><!DOCTYPE svg PUBLIC "-//W3C//DTD SVG 1.1//EN" "http://www.w3.org/Graphics/SVG/1.1/DTD/svg11.dtd"><svg t="1593779127424" class="icon" viewBox="0 0 1024 1024" version="1.1" xmlns="http://www.w3.org/2000/svg" p-id="1849" xmlns:xlink="http://www.w3.org/1999/xlink" width="64" height="64"><defs><style type="text/css"></style></defs><path d="M749.568 308.736c-35.328 0-64.512 31.232-64.512 69.12 0 20.992 9.216 39.936 23.04 52.736l-60.928 144.384c-8.192-4.096-16.896-6.144-26.624-6.144-11.776 0-23.04 3.584-32.768 9.728L466.944 447.488c5.632-10.24 9.216-22.016 9.216-34.816 0-38.4-28.672-69.632-64.512-69.632-35.328 0-64.512 31.232-64.512 69.12 0 19.456 7.68 37.376 19.456 49.664L295.936 576c-8.704-5.12-18.944-8.192-29.184-8.192-35.328 0-64.512 31.232-64.512 69.632s28.672 69.12 64.512 69.12 64.512-31.232 64.512-69.12c0-14.336-4.096-27.136-10.752-38.4l74.752-120.32c5.12 1.536 10.752 2.56 16.384 2.56 11.776 0 23.04-3.584 32.768-9.728L565.76 602.624c-5.632 10.24-9.216 22.016-9.216 34.816 0 38.4 28.672 69.12 64.512 69.12 35.328 0 64.512-31.232 64.512-69.12 0-14.848-4.608-29.184-12.288-40.448l64-151.04a50.496 50.496 0 0 0 12.288 1.536c35.328 0 64.512-31.232 64.512-69.12 0-38.912-28.672-69.632-64.512-69.632z" p-id="1850" fill="#000000"></path><path d="M510.976 963.584c-59.392 0-118.784-11.776-173.568-35.328C284.16 905.728 236.544 873.472 195.072 832s-73.728-89.088-96.256-142.336C75.264 634.88 63.488 575.488 63.488 516.096c0-74.752 20.992-154.112 59.392-223.232 4.096-6.656 13.312-11.776 20.992-11.776 1.536 0 4.608 0 6.656 2.048 8.704 6.144 13.312 19.456 6.656 30.208v1.024c-34.304 65.024-51.712 133.12-51.712 202.24 0 223.744 181.76 406.016 405.504 406.016S916.48 740.864 916.48 516.608c0-223.744-181.76-405.504-405.504-405.504-69.12 0-137.216 17.92-202.24 52.736h-1.024c-4.096 2.56-8.704 4.096-13.312 4.096-6.144 0-11.776-2.56-15.36-8.192-3.584-9.728-3.072-23.552 8.192-30.208 69.12-38.4 148.48-59.392 223.232-59.392 59.392 0 118.784 11.776 173.568 35.328C737.28 128 784.896 160.256 826.368 201.728c40.96 40.96 73.728 89.088 96.256 142.336 23.552 55.296 35.328 113.152 35.328 173.568S946.176 635.904 922.624 691.2c-22.528 53.248-54.784 100.864-96.256 142.336-40.96 40.96-89.088 73.728-142.336 96.256-54.272 22.016-113.664 33.792-173.056 33.792z" p-id="1851" fill="#000000"></path></svg>